<?xml version="1.0" standalone="no"?>
<!DOCTYPE svg PUBLIC "-//W3C//DTD SVG 20010904//EN"
 "http://www.w3.org/TR/2001/REC-SVG-20010904/DTD/svg10.dtd">
<svg version="1.0" xmlns="http://www.w3.org/2000/svg"
 width="320.000000pt" height="320.000000pt" viewBox="0 0 320.000000 320.000000"
 preserveAspectRatio="xMidYMid meet">
<metadata>
Created by potrace 1.14, written by Peter Selinger 2001-2017
</metadata>
<g transform="translate(0.000000,320.000000) scale(0.100000,-0.100000)"
fill="#000000" stroke="none">
<path d="M700 2620 c-37 -12 -68 -33 -96 -63 -35 -37 -43 -53 -49 -98 -3 -30
-5 -468 -3 -974 l3 -920 33 -3 32 -3 0 948 c1 1047 -3 988 63 1037 41 31 150
30 193 -1 68 -48 64 9 64 -1038 l0 -946 33 3 32 3 3 910 c2 501 0 939 -3 974
-6 59 -10 67 -55 112 -34 34 -62 52 -101 63 -66 20 -81 20 -149 -4z"/>
<path d="M1976 2625 c-57 -16 -113 -58 -141 -106 -20 -33 -20 -55 -23 -909 -2
-613 0 -886 8 -913 14 -48 62 -103 113 -127 55 -27 164 -27 216 -1 51 26 109
92 116 133 3 18 4 233 3 478 l-3 445 -125 0 -125 0 -3 -32 -3 -32 93 -3 93 -3
3 -406 c3 -460 2 -466 -63 -511 -76 -52 -200 -27 -234 48 -8 18 -11 266 -11
906 0 865 0 881 20 913 53 86 202 87 263 1 21 -30 22 -38 22 -303 l0 -273 38
0 37 0 0 270 c0 219 -3 278 -15 307 -40 94 -169 149 -279 118z"/>
<path d="M2512 2621 c-60 -21 -105 -59 -133 -113 -18 -36 -19 -71 -19 -913 0
-958 -3 -915 58 -978 45 -48 93 -67 170 -67 105 0 193 55 221 139 8 24 11 282
11 905 0 823 -1 873 -19 911 -46 103 -178 156 -289 116z m155 -68 c20 -9 44
-30 54 -47 18 -30 19 -68 19 -914 0 -990 5 -923 -72 -963 -77 -40 -174 -15
-218 56 -20 33 -20 41 -18 911 l3 879 22 31 c43 61 137 82 210 47z"/>
<path d="M390 1589 l0 -1030 33 3 32 3 3 1028 2 1027 -35 0 -35 0 0 -1031z"/>
<path d="M1102 1593 l3 -1028 125 0 c104 1 133 4 170 21 61 28 107 69 131 115
19 38 19 62 19 889 0 828 0 852 -20 889 -11 22 -39 55 -62 74 -70 55 -113 67
-248 67 l-120 0 2 -1027z m243 953 c58 -20 112 -70 125 -114 8 -26 10 -291 8
-862 -3 -928 3 -850 -80 -910 -39 -28 -47 -30 -135 -30 l-93 0 0 958 c0 527 3
962 7 965 12 12 127 7 168 -7z"/>
<path d="M1650 1590 l0 -1030 35 0 35 0 0 1030 0 1030 -35 0 -35 0 0 -1030z"/>
<path d="M2600 466 c0 -5 60 -36 68 -36 3 0 -3 9 -13 20 -16 17 -55 28 -55 16z"/>
<path d="M2765 460 c-3 -5 -2 -10 4 -10 5 0 13 5 16 10 3 6 2 10 -4 10 -5 0
-13 -4 -16 -10z"/>
<path d="M2390 451 c0 -6 17 -7 38 -4 51 8 53 13 4 13 -23 0 -42 -4 -42 -9z"/>
<path d="M2560 445 c-7 -8 -8 -15 -2 -15 5 0 15 7 22 15 7 8 8 15 2 15 -5 0
-15 -7 -22 -15z"/>
<path d="M2390 397 c0 -13 5 -17 16 -13 9 3 29 6 46 6 46 0 28 22 -20 24 -35
2 -42 -1 -42 -17z"/>
<path d="M2671 354 c-17 -46 -50 -60 -94 -38 l-32 15 24 -21 c28 -24 38 -25
85 -5 32 13 36 20 36 50 0 19 -1 35 -3 35 -2 0 -9 -16 -16 -36z"/>
<path d="M2475 323 c-12 -9 -32 -13 -52 -9 -18 2 -33 1 -33 -5 0 -16 86 -10
100 6 18 22 9 26 -15 8z"/>
</g>
</svg>
